<?xml version="1.0" encoding="UTF-8"?>
<svg id="Layer_1" xmlns="http://www.w3.org/2000/svg" version="1.1" xmlns:xlink="http://www.w3.org/1999/xlink" viewBox="0 0 590.26 107.1">
  <!-- Generator: Adobe Illustrator 29.7.1, SVG Export Plug-In . SVG Version: 2.1.1 Build 8)  -->
  <defs>
    <style>
      .st0 {
        fill: url(#linear-gradient1);
      }

      .st1 {
        fill: #0e223d;
      }

      .st2 {
        fill: #0e3f59;
      }

      .st3 {
        fill: url(#linear-gradient);
      }
    </style>
    <linearGradient id="linear-gradient" x1="57.49" y1="171.76" x2="167.22" y2="248.76" gradientTransform="translate(-115.07 260.39) rotate(10.79) scale(1 -1)" gradientUnits="userSpaceOnUse">
      <stop offset="0" stop-color="#007dfe"/>
      <stop offset="1" stop-color="#0f213d"/>
    </linearGradient>
    <linearGradient id="linear-gradient1" x1="82.94" y1="269.19" x2="225.71" y2="269.19" xlink:href="#linear-gradient"/>
  </defs>
  <path class="st3" d="M101.15,54.95c-.15.78-.83,1.35-1.63,1.36l-85.83.56c-3.26.02-6.05,2.35-6.66,5.55L.12,98.65c-.72,3.75,1.78,7.37,5.56,8.01,3.7.63,7.19-1.98,7.9-5.68l5.43-28.48c.22-1.17,1.24-2.02,2.43-2.03l85.15-.55c3.26-.02,6.05-2.35,6.66-5.55l3.27-17.16-13.92.09-1.46,7.65h.01Z"/>
  <path class="st0" d="M156.65,32.23l-15.02-10.59c-1.97-1.39-5.23.18-5.72,2.75l-.72,3.76-14.99.1,3.81-19.98c.33-1.72.07-3.53-.85-5.02-1.27-2.06-3.49-3.27-5.86-3.25L24.48.6c-3.26.02-6.05,2.35-6.66,5.55l-5.36,28.14c-.33,1.72-.07,3.53.85,5.02,1.28,2.07,3.49,3.27,5.87,3.26l92.74-.6h.05l20.63-.13-.76,3.97c-.49,2.57,2.18,4.1,4.68,2.68l19.1-10.81c2.28-1.29,2.83-4.17,1.04-5.43v-.02ZM27.78,26.86l2.15-11.29c.15-.78.83-1.35,1.63-1.36l75.49-.49c1.05,0,1.85.95,1.65,1.98l-2.41,12.64-76.86.5c-1.05,0-1.85-.95-1.65-1.98Z"/>
  <path class="st2" d="M179.31,19.46l3.02-19.08h6.76c1.47,0,2.63.26,3.47.77s1.44,1.26,1.79,2.24c.35.98.53,2.19.53,3.63,0,.54-.03,1.09-.09,1.65-.06.56-.13,1.1-.22,1.62-.21,1.33-.52,2.56-.95,3.68s-.97,2.09-1.64,2.91-1.48,1.46-2.44,1.91-2.08.68-3.37.68h-6.86ZM181.03,18.1h5.25c1.06,0,1.98-.21,2.76-.64s1.44-1.01,1.98-1.76.97-1.61,1.31-2.6c.34-.99.59-2.04.77-3.17.09-.57.16-1.11.21-1.61s.08-.95.08-1.35c0-1.14-.13-2.11-.4-2.89-.27-.78-.74-1.37-1.42-1.77-.68-.4-1.61-.6-2.81-.6h-5.12l-2.6,16.38h-.01Z"/>
  <path class="st2" d="M201.93,19.46l3.02-19.08h1.51l-3.02,19.08h-1.51Z"/>
  <path class="st2" d="M218.34,19.61c-1.79,0-3.05-.47-3.81-1.42-.75-.94-1.13-2.43-1.13-4.46,0-.64.04-1.32.12-2.03s.18-1.46.3-2.24c.29-1.89.75-3.53,1.37-4.91s1.45-2.47,2.51-3.24,2.4-1.16,4.03-1.16c1.37,0,2.53.08,3.48.25.95.17,1.8.35,2.55.56l-.16,1.14c-.73-.16-1.59-.29-2.57-.42-.99-.12-2.07-.18-3.25-.18-1.35,0-2.45.33-3.3.99-.85.66-1.52,1.6-2.01,2.83-.49,1.23-.88,2.75-1.16,4.55-.24,1.56-.36,2.87-.36,3.93,0,1.53.3,2.64.9,3.35.6.71,1.58,1.07,2.95,1.07.45,0,.94-.04,1.47-.13.53-.09,1.06-.19,1.59-.31.53-.12,1.01-.25,1.44-.38.43-.13.77-.25,1.01-.35l.99-6.27h-4.97l.16-1.14c.47-.07,1.06-.12,1.78-.14.72-.03,1.6-.04,2.64-.04.21,0,.43,0,.68.01.24,0,.48.02.72.03.23,0,.46.02.66.04l-1.56,9.91h-1.09l-.05-1.35c-.23.1-.56.24-1,.42-.44.17-.95.34-1.51.51s-1.14.3-1.73.42c-.59.11-1.14.17-1.66.17h-.03Z"/>
  <path class="st2" d="M234.43,19.46l3.02-19.08h1.51l-3.02,19.08h-1.51Z"/>
  <path class="st2" d="M250.06,19.46l2.81-17.73h-6.24l.21-1.35h13.99l-.21,1.35h-6.24l-2.81,17.73h-1.51Z"/>
  <path class="st2" d="M263.71,19.46L273.59.37h1.95l3.56,19.08h-1.56l-1.12-5.9h-8.09l-3.07,5.9h-1.56,0ZM268.96,12.2h7.28l-1.9-10.43-5.38,10.43Z"/>
  <path class="st2" d="M290.95,19.46c-.97,0-1.75-.19-2.33-.57s-.87-1.08-.87-2.11c0-.17,0-.34.03-.49.02-.16.04-.32.05-.49l2.44-15.42h1.51l-2.42,15.29c-.02.14-.03.27-.04.39-.01.12-.01.26-.01.42,0,.68.2,1.12.6,1.33s.88.31,1.46.31h7.07l-.21,1.35h-7.28Z"/>
  <path class="st1" d="M166.65,93.8l10.57-66.47h26.96c3.4,0,6.46.55,9.18,1.66,2.72,1.11,4.88,3,6.49,5.69s2.42,6.48,2.42,11.38c0,.96-.09,2.12-.27,3.49-.18,1.37-.36,2.6-.54,3.67-.6,4-1.61,7.36-3.05,10.08-1.43,2.72-3.12,4.88-5.06,6.49s-4.05,2.79-6.32,3.54-4.54,1.12-6.81,1.12c-2.81,0-5.58-.19-8.33-.58s-4.87-.79-6.36-1.21l-3.4,21.14h-15.5.02ZM187.43,60.56h10.66c1.43,0,2.7-.37,3.81-1.12,1.1-.75,2.01-1.81,2.73-3.18s1.19-2.96,1.43-4.75c.12-.78.22-1.55.31-2.33.09-.78.13-1.31.13-1.61,0-2.33-.45-3.97-1.34-4.93-.9-.95-2.24-1.43-4.03-1.43h-10.66s-3.04,19.35-3.04,19.35Z"/>
  <path class="st1" d="M240.82,94.33c-4.66,0-8.38-.73-11.15-2.19-2.78-1.46-4.78-3.57-6-6.31-1.22-2.75-1.84-6.03-1.84-9.85,0-1.61.09-3.15.27-4.61.18-1.46.39-2.88.63-4.25.83-5.37,2.36-9.67,4.57-12.9,2.21-3.23,5.08-5.57,8.6-7.03s7.61-2.19,12.27-2.19c2.33,0,4.6.22,6.81.67,2.21.45,4.21,1.2,6,2.24,1.79,1.05,3.24,2.52,4.34,4.43s1.66,4.39,1.66,7.44c0,3.4-.54,6.2-1.61,8.38-1.08,2.18-2.55,3.85-4.43,5.02-1.88,1.16-4.03,1.97-6.45,2.42s-5.03.67-7.84.67c-1.97,0-3.78-.07-5.42-.22s-2.97-.34-3.99-.58c-.06.36-.11.76-.13,1.21-.03.45-.04.88-.04,1.3,0,1.73.78,3.02,2.33,3.85,1.55.84,4.09,1.25,7.61,1.25h15.77l-1.43,9.05c-2.57.54-5.63,1.05-9.18,1.52-3.55.48-7.33.72-11.33.72l-.02-.04ZM242.88,67.82c2.45,0,4.37-.24,5.78-.72,1.4-.48,2.4-1.19,3-2.15.6-.95.9-2.12.9-3.49,0-1.55-.45-2.72-1.34-3.49-.9-.78-2.27-1.16-4.12-1.16-1.73,0-3.2.39-4.39,1.16-1.2.78-2.15,1.96-2.87,3.54s-1.25,3.54-1.61,5.87c.72.06,1.48.15,2.28.27.81.12,1.6.18,2.37.18h0Z"/>
  <path class="st1" d="M268.05,93.8l7.61-48.19h13.88l.63,6.36c1.61-1.91,3.45-3.54,5.51-4.88s4.43-2.02,7.12-2.02c.9,0,1.7.03,2.42.09s1.4.18,2.06.36l-2.33,15.5c-.84,0-1.72,0-2.64-.04-.93-.03-1.84-.04-2.73-.04-2.57,0-4.81.36-6.72,1.07-1.91.72-3.46,1.52-4.66,2.42l-4.66,29.38h-15.5.01Z"/>
  <path class="st1" d="M308.72,93.8l5.64-35.83h-6.54l1.61-9.94,6.9-2.42,1.16-6.99c.42-2.51,1.09-4.63,2.02-6.36.92-1.73,2.15-3.15,3.67-4.25,1.52-1.1,3.34-1.9,5.46-2.37,2.12-.48,4.52-.72,7.21-.72,2.15,0,4.18.09,6.09.27s3.55.39,4.93.63l-1.88,11.38h-6.18c-1.43,0-2.63.18-3.58.54-.96.36-1.67.96-2.15,1.79-.48.84-.81,2-.99,3.49l-.27,2.6h10.66l-1.97,12.36h-10.66l-5.64,35.83h-15.5.01Z"/>
  <path class="st1" d="M361.03,94.33c-4.66,0-8.38-.73-11.15-2.19-2.78-1.46-4.78-3.57-6-6.31-1.22-2.75-1.84-6.03-1.84-9.85,0-1.61.09-3.15.27-4.61s.39-2.88.63-4.25c.83-5.37,2.36-9.67,4.57-12.9,2.21-3.23,5.08-5.57,8.6-7.03,3.52-1.46,7.61-2.19,12.27-2.19,2.33,0,4.6.22,6.81.67,2.21.45,4.21,1.2,6,2.24,1.79,1.05,3.24,2.52,4.34,4.43s1.66,4.39,1.66,7.44c0,3.4-.54,6.2-1.61,8.38-1.08,2.18-2.55,3.85-4.43,5.02-1.88,1.16-4.03,1.97-6.45,2.42s-5.03.67-7.84.67c-1.97,0-3.78-.07-5.42-.22s-2.97-.34-3.99-.58c-.06.36-.11.76-.13,1.21-.03.45-.04.88-.04,1.3,0,1.73.78,3.02,2.33,3.85,1.55.84,4.09,1.25,7.61,1.25h15.77l-1.43,9.05c-2.57.54-5.63,1.05-9.18,1.52-3.55.48-7.33.72-11.33.72l-.02-.04ZM363.09,67.82c2.45,0,4.37-.24,5.78-.72,1.4-.48,2.4-1.19,3-2.15.6-.95.9-2.12.9-3.49,0-1.55-.45-2.72-1.34-3.49-.9-.78-2.27-1.16-4.12-1.16-1.73,0-3.2.39-4.39,1.16-1.2.78-2.15,1.96-2.87,3.54s-1.25,3.54-1.61,5.87c.72.06,1.48.15,2.28.27.81.12,1.6.18,2.37.18h0Z"/>
  <path class="st1" d="M408.15,94.33c-3.64,0-6.81-.58-9.5-1.75s-4.75-3.07-6.18-5.73-2.15-6.34-2.15-11.06c0-1.01.07-2.28.22-3.81.15-1.52.34-3.12.58-4.79.83-5.43,2.3-9.76,4.39-12.99,2.09-3.23,4.67-5.55,7.75-6.99,3.08-1.43,6.52-2.15,10.35-2.15,2.69,0,5.46.28,8.33.85s5.67,1.24,8.42,2.02l-1.52,8.87h-11.65c-2.33,0-4.21.51-5.64,1.52-1.43,1.02-2.55,2.48-3.36,4.39s-1.48,4.24-2.02,6.99c-.18,1.2-.3,2.17-.36,2.91-.06.75-.09,1.3-.09,1.66,0,1.97.28,3.57.85,4.79s1.4,2.14,2.51,2.73c1.1.6,2.46.9,4.08.9h12.36l-1.43,8.78c-2.03.84-4.3,1.52-6.81,2.06s-5.55.81-9.14.81h0Z"/>
  <path class="st1" d="M450.88,93.8c-5.08,0-8.9-.91-11.47-2.73s-3.85-4.64-3.85-8.47c0-1.01.06-2.24.18-3.67s.33-3.05.63-4.84l3.05-16.21h-7.43l1.61-9.85,8.33-2.42,4.12-13.53h12.27l-2.15,13.53h10.48l-1.88,12.27h-10.48l-2.6,16.21c-.12.48-.24,1.14-.36,1.97-.12.84-.18,1.55-.18,2.15,0,1.25.33,2.14.99,2.64.66.51,1.64.82,2.96.94l5.38.54-1.79,11.47h-7.81Z"/>
  <path class="st1" d="M466.19,93.8l7.52-48.19h15.5l-7.61,48.19h-15.41ZM476.59,39.06c-.54,0-.97-.18-1.3-.54s-.43-.84-.31-1.43l1.43-9.41c.24-1.37,1.02-2.06,2.33-2.06h12c.66,0,1.1.19,1.34.58s.3.88.18,1.48l-1.43,9.41c-.24,1.31-.96,1.97-2.15,1.97h-12.09Z"/>
  <path class="st1" d="M510.71,94.33c-4.3,0-7.9-.64-10.79-1.93-2.9-1.28-5.06-3.18-6.49-5.69s-2.15-5.61-2.15-9.32c0-1.79.06-3.43.18-4.93.12-1.49.3-2.93.54-4.3.78-4.84,1.85-8.76,3.23-11.78,1.37-3.01,3.1-5.34,5.2-6.99,2.09-1.64,4.63-2.78,7.61-3.4s6.45-.94,10.39-.94c5.31,0,9.36.64,12.14,1.93,2.78,1.28,4.66,3.24,5.64,5.87.99,2.63,1.48,5.94,1.48,9.94,0,1.43-.06,2.99-.18,4.66s-.33,3.37-.63,5.11c-.9,5.85-2.4,10.36-4.52,13.53s-4.94,5.33-8.46,6.49c-3.52,1.16-7.91,1.75-13.17,1.75h-.02ZM512.33,81.97c1.43,0,2.66-.18,3.67-.54s1.85-.94,2.51-1.75,1.22-1.97,1.7-3.49c.48-1.52.9-3.48,1.25-5.87.3-1.67.51-3.16.63-4.48.12-1.31.18-2.54.18-3.67,0-1.91-.46-3.22-1.39-3.94-.93-.72-2.43-1.07-4.52-1.07-1.49,0-2.73.18-3.72.54s-1.81,1.02-2.46,1.97c-.66.96-1.22,2.31-1.7,4.08-.48,1.76-.9,3.96-1.25,6.58-.24,1.25-.4,2.39-.49,3.4-.09,1.02-.13,2-.13,2.96,0,1.37.21,2.45.63,3.23.42.78,1.04,1.31,1.88,1.61s1.91.45,3.22.45h-.01Z"/>
  <path class="st1" d="M540.1,93.8l7.52-48.19h12.9l1.88,4.75c1.91-1.49,4.19-2.75,6.85-3.76s5.63-1.52,8.91-1.52c2.63,0,4.84.45,6.63,1.34s3.15,2.15,4.08,3.76c.92,1.61,1.39,3.46,1.39,5.55,0,1.08-.04,2.3-.13,3.67s-.4,3.64-.94,6.81l-4.3,27.59h-15.5l4.3-27.05c.12-1.01.21-1.81.27-2.37.06-.57.09-1,.09-1.3,0-1.31-.36-2.33-1.08-3.05s-1.97-1.07-3.76-1.07c-1.61,0-3.17.33-4.66.99s-2.84,1.52-4.03,2.6l-5.02,31.26h-15.41,0Z"/>
</svg>