<?xml version="1.0" encoding="UTF-8"?>
<svg xmlns="http://www.w3.org/2000/svg" version="1.1" viewBox="0 0 320 58.06">
  <!-- Generator: Adobe Illustrator 29.6.1, SVG Export Plug-In . SVG Version: 2.1.1 Build 9)  -->
  <defs>
    <style>
      .st0, .st1 {
        fill: #fff;
      }

      .st2 {
        isolation: isolate;
      }

      .st1 {
        mix-blend-mode: overlay;
      }
    </style>
  </defs>
  <g class="st2">
    <g id="Layer_1">
      <g>
        <g>
          <path class="st0" d="M54.84,29.98c-.08.42-.45.73-.88.74l-46.53.3c-1.77.01-3.28,1.27-3.61,3.01L.07,53.67c-.39,2.03.97,3.99,3.01,4.34,2.01.34,3.9-1.08,4.28-3.08l2.94-15.44c.12-.63.67-1.09,1.32-1.1l46.16-.3c1.77-.01,3.28-1.27,3.61-3.01l1.77-9.3-7.55.05-.79,4.15Z"/>
          <path class="st0" d="M84.93,17.48l-8.14-5.74c-1.07-.75-2.83.1-3.1,1.49l-.39,2.04-8.13.05,2.06-10.83c.18-.93.04-1.91-.46-2.72C66.08.65,64.88,0,63.59,0L13.27.33c-1.77.01-3.28,1.27-3.61,3.01l-2.91,15.25c-.18.93-.04,1.91.46,2.72.69,1.12,1.89,1.77,3.18,1.77l50.28-.33s.02,0,.02,0l11.18-.07-.41,2.15c-.27,1.39,1.18,2.22,2.54,1.45l10.35-5.86c1.24-.7,1.53-2.26.56-2.95ZM15.06,14.56l1.17-6.12c.08-.42.45-.73.88-.74l40.93-.27c.57,0,1,.51.89,1.07l-1.31,6.85-41.67.27c-.57,0-1-.51-.89-1.07Z"/>
        </g>
        <polygon class="st1" points="55.05 28.88 62.59 28.83 63.17 25.78 55.63 25.83 55.05 28.88"/>
      </g>
      <g>
        <path class="st0" d="M97.21,10.55l1.63-10.35h3.66c.8,0,1.43.14,1.88.42.46.28.78.68.97,1.21.19.53.29,1.19.29,1.97,0,.29-.02.59-.05.89-.03.31-.07.6-.12.88-.11.72-.28,1.39-.51,1.99s-.53,1.13-.89,1.58-.8.79-1.33,1.04-1.13.37-1.82.37h-3.72ZM98.14,9.82h2.85c.57,0,1.07-.11,1.49-.35s.78-.55,1.07-.95c.29-.4.53-.87.71-1.41.18-.54.32-1.11.42-1.72.05-.31.08-.6.11-.87.03-.27.04-.52.04-.73,0-.62-.07-1.14-.22-1.56-.15-.42-.4-.74-.77-.96-.37-.22-.87-.32-1.52-.32h-2.78l-1.41,8.88Z"/>
        <path class="st0" d="M109.47,10.55l1.63-10.35h.82l-1.63,10.35h-.82Z"/>
        <path class="st0" d="M118.37,10.63c-.97,0-1.66-.26-2.06-.77-.41-.51-.61-1.32-.61-2.42,0-.35.02-.71.06-1.1.04-.39.1-.79.16-1.21.16-1.02.41-1.91.74-2.66s.79-1.34,1.36-1.75c.57-.42,1.3-.63,2.18-.63.74,0,1.37.04,1.89.13.52.09.98.19,1.38.3l-.08.62c-.39-.08-.86-.16-1.4-.23-.54-.07-1.12-.1-1.76-.1-.73,0-1.33.18-1.79.54-.46.36-.82.87-1.09,1.54-.27.67-.48,1.49-.63,2.47-.13.85-.2,1.56-.2,2.13,0,.83.16,1.43.49,1.82.32.39.86.58,1.6.58.24,0,.51-.02.8-.07.29-.05.57-.1.86-.17.29-.07.55-.13.78-.2.23-.07.42-.13.55-.19l.54-3.4h-2.69l.08-.62c.25-.04.58-.06.97-.08.39-.01.87-.02,1.43-.02.11,0,.24,0,.37,0,.13,0,.26,0,.39.01.13,0,.25.01.36.02l-.85,5.37h-.59l-.03-.73c-.12.06-.3.13-.54.23-.24.09-.51.19-.82.27-.31.09-.62.16-.94.23-.32.06-.62.09-.9.09Z"/>
        <path class="st0" d="M127.09,10.55l1.63-10.35h.82l-1.63,10.35h-.82Z"/>
        <path class="st0" d="M135.56,10.55l1.52-9.61h-3.38l.11-.73h7.58l-.11.73h-3.38l-1.52,9.61h-.82Z"/>
        <path class="st0" d="M142.96,10.55L148.32.2h1.06l1.93,10.35h-.85l-.61-3.2h-4.38l-1.66,3.2h-.85ZM145.81,6.62h3.95l-1.03-5.65-2.92,5.65Z"/>
        <path class="st0" d="M157.74,10.55c-.53,0-.95-.1-1.26-.31-.32-.21-.47-.59-.47-1.14,0-.09,0-.18.01-.27,0-.08.02-.17.03-.27l1.32-8.36h.82l-1.31,8.29c0,.08-.02.15-.02.21s0,.14,0,.23c0,.37.11.61.32.72.22.11.48.17.79.17h3.83l-.11.73h-3.95Z"/>
      </g>
      <g>
        <path class="st0" d="M90.35,50.85l5.73-36.03h14.62c1.85,0,3.5.3,4.98.9,1.47.6,2.65,1.63,3.52,3.08.87,1.46,1.31,3.51,1.31,6.17,0,.52-.05,1.15-.15,1.89-.1.75-.19,1.41-.29,1.99-.32,2.17-.87,3.99-1.65,5.46-.78,1.47-1.69,2.65-2.74,3.52-1.05.87-2.19,1.51-3.42,1.92-1.23.41-2.46.61-3.69.61-1.52,0-3.03-.1-4.52-.32-1.49-.21-2.64-.43-3.45-.66l-1.85,11.46h-8.4ZM101.61,32.83h5.78c.78,0,1.46-.2,2.06-.61.6-.4,1.09-.98,1.48-1.72.39-.74.65-1.6.78-2.57.06-.42.12-.84.17-1.26.05-.42.07-.71.07-.87,0-1.26-.24-2.15-.73-2.67-.49-.52-1.21-.78-2.19-.78h-5.78l-1.65,10.49Z"/>
        <path class="st0" d="M130.56,51.14c-2.53,0-4.54-.4-6.05-1.19-1.51-.79-2.59-1.93-3.25-3.42-.66-1.49-1-3.27-1-5.34,0-.87.05-1.71.15-2.5.1-.79.21-1.56.34-2.31.45-2.91,1.28-5.24,2.48-6.99,1.2-1.75,2.75-3.02,4.66-3.81,1.91-.79,4.13-1.19,6.65-1.19,1.26,0,2.49.12,3.69.36,1.2.24,2.28.65,3.25,1.21.97.57,1.76,1.37,2.36,2.4.6,1.04.9,2.38.9,4.03,0,1.85-.29,3.36-.87,4.54-.58,1.18-1.38,2.09-2.4,2.72-1.02.63-2.18,1.07-3.5,1.31-1.31.24-2.73.36-4.25.36-1.07,0-2.05-.04-2.94-.12-.89-.08-1.61-.19-2.16-.32-.03.19-.06.41-.07.66-.02.24-.02.48-.02.7,0,.94.42,1.64,1.26,2.09.84.45,2.22.68,4.13.68h8.55l-.78,4.9c-1.39.29-3.05.57-4.98.83-1.93.26-3.97.39-6.14.39ZM131.67,36.77c1.33,0,2.37-.13,3.13-.39.76-.26,1.3-.65,1.63-1.17.32-.52.49-1.15.49-1.89,0-.84-.24-1.47-.73-1.89-.49-.42-1.23-.63-2.23-.63-.94,0-1.73.21-2.38.63-.65.42-1.17,1.06-1.55,1.92-.39.86-.68,1.92-.87,3.18.39.03.8.08,1.24.15.44.07.87.1,1.29.1Z"/>
        <path class="st0" d="M145.32,50.85l4.13-26.13h7.53l.34,3.45c.87-1.04,1.87-1.92,2.99-2.65,1.12-.73,2.4-1.09,3.86-1.09.49,0,.92.02,1.31.05.39.03.76.1,1.12.19l-1.26,8.4c-.45,0-.93,0-1.43-.02-.5-.02-1-.02-1.48-.02-1.39,0-2.61.19-3.64.58-1.04.39-1.88.83-2.53,1.31l-2.53,15.93h-8.4Z"/>
        <path class="st0" d="M167.37,50.85l3.06-19.43h-3.55l.87-5.39,3.74-1.31.63-3.79c.23-1.36.59-2.51,1.09-3.45.5-.94,1.17-1.71,1.99-2.31.83-.6,1.81-1.03,2.96-1.29,1.15-.26,2.45-.39,3.91-.39,1.17,0,2.27.05,3.3.15s1.93.21,2.67.34l-1.02,6.17h-3.35c-.78,0-1.43.1-1.94.29-.52.19-.91.52-1.17.97-.26.45-.44,1.09-.53,1.89l-.15,1.41h5.78l-1.07,6.7h-5.78l-3.06,19.43h-8.4Z"/>
        <path class="st0" d="M195.73,51.14c-2.53,0-4.54-.4-6.05-1.19-1.51-.79-2.59-1.93-3.25-3.42-.66-1.49-1-3.27-1-5.34,0-.87.05-1.71.15-2.5.1-.79.21-1.56.34-2.31.45-2.91,1.28-5.24,2.48-6.99,1.2-1.75,2.75-3.02,4.66-3.81,1.91-.79,4.13-1.19,6.65-1.19,1.26,0,2.49.12,3.69.36,1.2.24,2.28.65,3.25,1.21.97.57,1.76,1.37,2.36,2.4.6,1.04.9,2.38.9,4.03,0,1.85-.29,3.36-.87,4.54-.58,1.18-1.38,2.09-2.4,2.72-1.02.63-2.18,1.07-3.5,1.31-1.31.24-2.73.36-4.25.36-1.07,0-2.05-.04-2.94-.12-.89-.08-1.61-.19-2.16-.32-.03.19-.06.41-.07.66-.02.24-.02.48-.02.7,0,.94.42,1.64,1.26,2.09.84.45,2.22.68,4.13.68h8.55l-.78,4.9c-1.39.29-3.05.57-4.98.83-1.93.26-3.97.39-6.14.39ZM196.84,36.77c1.33,0,2.37-.13,3.13-.39.76-.26,1.3-.65,1.63-1.17.32-.52.49-1.15.49-1.89,0-.84-.24-1.47-.73-1.89-.49-.42-1.23-.63-2.23-.63-.94,0-1.73.21-2.38.63-.65.42-1.17,1.06-1.55,1.92-.39.86-.68,1.92-.87,3.18.39.03.8.08,1.24.15.44.07.87.1,1.29.1Z"/>
        <path class="st0" d="M221.27,51.14c-1.98,0-3.69-.32-5.15-.95s-2.57-1.67-3.35-3.11c-.78-1.44-1.17-3.44-1.17-6,0-.55.04-1.24.12-2.06.08-.83.19-1.69.32-2.6.45-2.95,1.25-5.29,2.38-7.04,1.13-1.75,2.53-3.01,4.2-3.79,1.67-.78,3.54-1.17,5.61-1.17,1.46,0,2.96.15,4.52.46,1.55.31,3.08.67,4.56,1.09l-.83,4.81h-6.31c-1.26,0-2.28.28-3.06.83-.78.55-1.38,1.34-1.82,2.38-.44,1.04-.8,2.3-1.09,3.79-.1.65-.16,1.17-.19,1.58-.03.41-.05.7-.05.9,0,1.07.15,1.94.46,2.6.31.66.76,1.16,1.36,1.48.6.32,1.34.49,2.21.49h6.7l-.78,4.76c-1.1.45-2.33.83-3.69,1.12-1.36.29-3.01.44-4.95.44Z"/>
        <path class="st0" d="M244.44,50.85c-2.75,0-4.82-.49-6.22-1.48-1.39-.99-2.09-2.52-2.09-4.59,0-.55.03-1.21.1-1.99.06-.78.18-1.65.34-2.62l1.65-8.79h-4.03l.87-5.34,4.52-1.31,2.23-7.33h6.65l-1.17,7.33h5.68l-1.02,6.65h-5.68l-1.41,8.79c-.07.26-.13.62-.19,1.07-.07.45-.1.84-.1,1.17,0,.68.18,1.16.53,1.43.36.28.89.45,1.6.51l2.91.29-.97,6.22h-4.22Z"/>
        <path class="st0" d="M252.74,50.85l4.08-26.13h8.4l-4.13,26.13h-8.35ZM258.37,21.18c-.29,0-.53-.1-.7-.29-.18-.19-.24-.45-.17-.78l.78-5.1c.13-.74.55-1.12,1.26-1.12h6.51c.36,0,.6.11.73.32.13.21.16.48.1.8l-.78,5.1c-.13.71-.52,1.07-1.17,1.07h-6.56Z"/>
        <path class="st0" d="M276.88,51.14c-2.33,0-4.28-.35-5.85-1.04-1.57-.7-2.74-1.72-3.52-3.08s-1.17-3.04-1.17-5.05c0-.97.03-1.86.1-2.67.06-.81.16-1.59.29-2.33.42-2.62,1-4.75,1.75-6.39.74-1.63,1.68-2.9,2.82-3.79,1.13-.89,2.51-1.51,4.13-1.85s3.5-.51,5.63-.51c2.88,0,5.07.35,6.58,1.04,1.51.7,2.53,1.76,3.06,3.18.53,1.42.8,3.22.8,5.39,0,.78-.03,1.62-.1,2.53-.07.91-.18,1.83-.34,2.77-.49,3.17-1.3,5.62-2.45,7.33-1.15,1.72-2.68,2.89-4.59,3.52-1.91.63-4.29.95-7.14.95ZM277.75,44.44c.78,0,1.44-.1,1.99-.29.55-.19,1-.51,1.36-.95s.66-1.07.92-1.89c.26-.83.49-1.89.68-3.18.16-.91.27-1.72.34-2.43.06-.71.1-1.38.1-1.99,0-1.04-.25-1.75-.75-2.14-.5-.39-1.32-.58-2.45-.58-.81,0-1.48.1-2.02.29-.53.19-.98.55-1.34,1.07-.36.52-.66,1.26-.92,2.21-.26.96-.49,2.15-.68,3.57-.13.68-.22,1.3-.27,1.85-.05.55-.07,1.09-.07,1.6,0,.75.11,1.33.34,1.75.23.42.57.71,1.02.87.45.16,1.04.24,1.75.24Z"/>
        <path class="st0" d="M292.8,50.85l4.08-26.13h6.99l1.02,2.57c1.04-.81,2.27-1.49,3.72-2.04,1.44-.55,3.05-.83,4.83-.83,1.42,0,2.62.24,3.59.73s1.71,1.17,2.21,2.04c.5.87.75,1.88.75,3.01,0,.58-.02,1.25-.07,1.99-.05.75-.22,1.98-.51,3.69l-2.33,14.96h-8.4l2.33-14.67c.06-.55.11-.98.15-1.29.03-.31.05-.54.05-.7,0-.71-.19-1.26-.58-1.65s-1.07-.58-2.04-.58c-.87,0-1.72.18-2.53.53-.81.36-1.54.83-2.19,1.41l-2.72,16.95h-8.35Z"/>
      </g>
    </g>
  </g>
</svg>